<svg width="24" height="24" viewBox="0 0 24 24" fill="none" xmlns="http://www.w3.org/2000/svg">
<path fill-rule="evenodd" clip-rule="evenodd" d="M20.625 12C20.625 16.7634 16.7634 20.625 12 20.625C7.23655 20.625 3.375 16.7634 3.375 12C3.375 7.23655 7.23655 3.375 12 3.375C16.7634 3.375 20.625 7.23655 20.625 12ZM15.4762 15.9355C14.5726 16.7466 13.5458 17.25 11.9988 17.25C9.20595 17.25 7.125 15.0264 7.125 12.2155V12.1875C7.125 9.40451 9.16485 7.125 12.0673 7.125C13.5458 7.125 14.5179 7.57253 15.353 8.2298C15.531 8.36963 15.6816 8.60741 15.6816 8.91506C15.6816 9.39052 15.3119 9.75414 14.8464 9.75414C14.6137 9.75414 14.4494 9.67023 14.3399 9.58632C13.6827 9.0409 12.9709 8.70526 12.0536 8.70526C10.2328 8.70526 8.89106 10.2436 8.89106 12.1595V12.1875C8.89106 14.1034 10.219 15.6557 12.0536 15.6557C13.0666 15.6557 13.7512 15.3201 14.4494 14.7188C14.5726 14.6069 14.7506 14.523 14.956 14.523C15.3804 14.523 15.75 14.8866 15.75 15.3201C15.75 15.5858 15.6268 15.7956 15.4762 15.9355Z" fill="#02010A"/>
</svg>
