<svg width="1408" height="742" viewBox="0 0 1408 742" fill="none" xmlns="http://www.w3.org/2000/svg">
<path d="M21.9166 10.0771C94.7318 10.0771 167.089 10.0771 239.904 10.0771C239.904 58.1627 239.904 81.9764 239.904 130.062C203.268 130.062 184.491 130.062 147.855 130.062C147.855 223.485 147.855 316.451 147.855 409.874C182.66 409.874 200.062 409.874 234.867 409.874C234.867 457.959 234.867 481.773 234.867 529.859C200.062 529.859 182.66 529.859 147.855 529.859C147.855 641.6 133.2 760.669 175.79 865.541C221.586 978.657 179.454 1018.5 153.35 1127.49C106.181 1324.41 147.855 1524.08 147.855 1724.21C97.4795 1724.21 72.2919 1724.21 21.9166 1724.21C21.9166 1577.66 -14.262 1419.67 6.34608 1276.33C15.9632 1210.38 21.0007 1143.98 42.9827 1080.78C73.6658 992.395 87.8625 963.544 51.6838 869.205C4.97223 747.846 21.9166 612.291 21.9166 483.147C21.9166 325.61 21.9166 168.072 21.9166 10.0771Z" fill="#131313"/>
<path d="M270.129 10.0771C320.505 10.0771 345.692 10.0771 396.068 10.0771C396.068 161.661 396.068 312.787 396.068 464.371C396.068 571.533 375.459 704.34 401.563 807.838C418.965 876.532 467.509 929.197 450.106 1004.3C437.742 1056.51 404.769 1095.89 396.525 1150.39C385.992 1218.17 371.338 1296.02 374.086 1365.17C377.291 1445.77 396.525 1523.17 396.525 1604.68C435.91 1604.68 455.602 1604.68 494.986 1604.68C494.986 1652.77 494.986 1676.58 494.986 1724.67C420.339 1724.67 345.234 1724.67 270.587 1724.67C270.587 1578.12 234.409 1420.13 255.017 1276.79C264.634 1210.84 269.671 1144.44 291.653 1081.24C322.336 992.853 336.533 964.002 300.354 869.663C253.643 748.304 270.587 612.749 270.587 483.605C270.129 325.61 270.129 168.072 270.129 10.0771Z" fill="#131313"/>
<path d="M514.679 1543.78C503.688 1412.8 493.155 1311.13 512.847 1180.16C531.623 1056.05 595.737 993.769 544.446 869.204C505.519 774.865 514.679 680.068 514.679 579.317C514.679 449.716 514.679 320.114 514.679 190.512C512.847 93.4249 551.773 0.459618 660.767 0.00166013C771.135 -0.456297 803.65 93.8829 801.818 190.512C801.818 320.114 801.818 449.716 801.818 579.317C801.818 680.068 792.659 774.865 831.585 869.204C882.876 993.769 818.304 1056.05 799.986 1180.16C780.294 1310.68 790.827 1412.8 801.818 1543.78C803.65 1640.86 764.723 1733.83 655.729 1734.29C545.362 1734.29 512.847 1640.4 514.679 1543.78ZM658.477 1614.3C669.926 1614.3 676.337 1606.52 676.337 1584.08C675.422 1503.93 652.982 1426.08 653.44 1346.4C653.898 1292.81 667.636 1238.78 674.964 1186.11C683.207 1125.2 695.114 1096.35 717.096 1039.11C742.741 971.787 729.918 934.692 706.105 869.662C667.636 764.79 676.337 659.46 676.337 548.634C676.337 415.827 676.337 283.019 676.337 150.212C676.337 127.314 669.926 119.986 658.477 119.986C647.028 119.986 640.617 127.772 640.617 150.212C640.617 283.019 640.617 415.827 640.617 548.634C640.617 659.46 631.916 764.332 670.384 869.662C694.198 934.692 707.021 971.329 681.375 1039.11C659.393 1096.35 647.486 1125.2 639.243 1186.11C631.916 1239.23 618.177 1292.81 617.719 1346.4C617.261 1426.08 639.701 1503.93 640.617 1584.08C640.617 1606.97 647.028 1614.3 658.477 1614.3Z" fill="#131313"/>
<path d="M821.052 10.0771C871.885 10.0771 897.53 10.0771 948.364 10.0771C951.569 157.081 954.317 304.544 957.523 451.548C959.813 558.71 945.158 680.069 965.308 784.941C978.131 851.345 1029.42 907.673 1027.13 976.825C1025.3 1027.2 989.122 1071.62 976.757 1118.79C937.373 1267.63 969.888 1411.43 979.963 1559.8C984.084 1559.8 985.916 1559.8 990.038 1559.8C986.374 1410.51 960.271 1266.25 1005.15 1118.79C1019.8 1070.71 1056.9 1028.12 1061.48 976.825C1067.43 908.589 1017.06 850.429 1006.98 784.941C990.954 680.526 1010.65 557.794 1012.94 451.548C1016.14 304.544 1018.89 157.081 1022.09 10.0771C1078.42 10.0771 1134.75 10.0771 1191.08 10.0771C1194.29 157.081 1197.03 304.544 1200.24 451.548C1202.53 558.71 1187.88 680.069 1208.03 784.941C1220.85 851.345 1272.14 907.673 1269.85 976.825C1268.02 1027.2 1231.84 1071.62 1219.47 1118.79C1180.09 1267.63 1212.6 1411.43 1222.68 1559.8C1226.8 1559.8 1228.63 1559.8 1232.75 1559.8C1229.09 1410.51 1202.99 1266.25 1247.87 1118.79C1262.52 1070.71 1299.62 1028.12 1304.2 976.825C1310.15 908.589 1259.77 850.429 1249.7 784.941C1233.67 680.526 1253.36 557.794 1255.65 451.548C1258.86 304.544 1261.61 157.081 1264.81 10.0771C1314.73 10.0771 1339.92 10.0771 1389.83 10.0771C1384.34 167.614 1378.84 325.61 1373.35 483.147C1368.77 612.291 1348.16 746.014 1389.38 869.205C1420.52 962.17 1409.53 994.685 1372.89 1080.78C1346.79 1142.15 1341.75 1210.38 1329.38 1276.33C1315.65 1350.06 1327.09 1415.09 1333.05 1488.82C1339.92 1566.67 1331.67 1646.36 1328.93 1724.21C1265.27 1724.21 1201.16 1724.21 1137.5 1724.21C1136.13 1646.36 1139.79 1566.22 1128.8 1488.82C1121.47 1435.24 1106.36 1384.41 1107.73 1329.91C1110.48 1217.71 1145.29 1123.37 1172.3 1018.04C1189.71 950.721 1166.81 910.879 1141.62 849.055C1120.1 795.932 1119.64 755.174 1118.27 698.845C1115.06 567.411 1113.23 435.977 1110.94 304.544C1106.82 304.544 1104.98 304.544 1100.86 304.544C1098.57 435.977 1095.37 567.411 1093.54 698.845C1093.08 752.884 1092.62 798.221 1111.4 849.055C1134.75 911.795 1155.36 951.637 1135.67 1018.04C1104.98 1122.46 1066.52 1218.17 1059.19 1329.91C1055.53 1384.41 1068.81 1435.24 1074.3 1488.82C1082.55 1566.67 1075.68 1646.36 1074.3 1724.21C1010.65 1724.21 946.532 1724.21 882.876 1724.21C877.38 1567.13 838.454 1406.39 854.94 1251.14C862.268 1181.99 867.763 1123.37 891.119 1057.88C917.681 982.32 913.559 943.394 882.418 869.663C829.295 742.809 843.034 594.888 837.996 458.417C831.585 308.665 826.089 159.371 821.052 10.0771Z" fill="#131313"/>
</svg>
