<svg width="24" height="24" viewBox="0 0 24 24" fill="none" xmlns="http://www.w3.org/2000/svg">
<path d="M6.78138 14.3739C6.78138 15.4154 5.93379 16.2657 4.89114 16.2657C4.38955 16.2642 3.90895 16.0644 3.55453 15.7098C3.2001 15.3553 3.00071 14.8749 3 14.3739C3.00095 13.873 3.20044 13.3929 3.55484 13.0385C3.90924 12.6842 4.38971 12.4845 4.89114 12.483H6.78138V14.3739ZM7.73504 14.3739C7.73504 13.3324 8.58354 12.483 9.62619 12.483C10.1275 12.4847 10.6077 12.6845 10.9619 13.0389C11.3161 13.3932 11.5155 13.8732 11.5164 14.3739V19.1091C11.5155 19.6099 11.3161 20.0899 10.9619 20.4442C10.6077 20.7985 10.1275 20.9983 9.62619 21C9.12461 20.9991 8.64387 20.7995 8.28936 20.445C7.93486 20.0906 7.73552 19.6102 7.73504 19.1091V14.3739ZM9.62619 6.78262C8.58354 6.78262 7.73504 5.93146 7.73504 4.89086C7.73504 3.85026 8.58354 3 9.62619 3C10.1275 3.00166 10.6077 3.20149 10.9619 3.55582C11.3161 3.91014 11.5155 4.39013 11.5164 4.89086V6.78262H9.62619ZM9.62619 7.73434C10.1276 7.736 10.608 7.93596 10.9622 8.29047C11.3165 8.64499 11.5157 9.12521 11.5164 9.6261C11.5155 10.1268 11.3161 10.6068 10.9619 10.9611C10.6077 11.3155 10.1275 11.5153 9.62619 11.517H4.89204C4.39061 11.5155 3.91014 11.3158 3.55574 10.9615C3.20134 10.6071 3.00185 10.127 3.0009 9.6261C3.00161 9.12506 3.201 8.6447 3.55542 8.29016C3.90985 7.93561 4.39045 7.73576 4.89204 7.73434H9.62619ZM17.2186 9.6261C17.2186 8.5846 18.0662 7.73434 19.1089 7.73434C19.6104 7.73576 20.091 7.93561 20.4455 8.29016C20.7999 8.6447 20.9993 9.12506 21 9.6261C20.9991 10.127 20.7996 10.6071 20.4452 10.9615C20.0908 11.3158 19.6103 11.5155 19.1089 11.517H17.2186V9.6261ZM16.265 9.6261C16.265 10.6676 15.4165 11.517 14.3738 11.517C13.8725 11.5153 13.3923 11.3155 13.0381 10.9611C12.6839 10.6068 12.4845 10.1268 12.4836 9.6261V4.89086C12.4845 4.39013 12.6839 3.91014 13.0381 3.55582C13.3923 3.20149 13.8725 3.00166 14.3738 3C15.4165 3 16.265 3.84936 16.265 4.89086V9.6261ZM14.3738 17.2174C15.4165 17.2174 16.265 18.0685 16.265 19.1091C16.265 20.1497 15.4165 21 14.3738 21C13.8725 20.9983 13.3923 20.7985 13.0381 20.4442C12.6839 20.0899 12.4845 19.6099 12.4836 19.1091V17.2174H14.3738ZM14.3738 16.2657C13.8724 16.264 13.392 16.064 13.0378 15.7095C12.6835 15.355 12.4843 14.8748 12.4836 14.3739C12.4845 13.8732 12.6839 13.3932 13.0381 13.0389C13.3923 12.6845 13.8725 12.4847 14.3738 12.483H19.1089C19.6103 12.4845 20.0908 12.6842 20.4452 13.0385C20.7996 13.3929 20.9991 13.873 21 14.3739C20.9993 14.8749 20.7999 15.3553 20.4455 15.7098C20.091 16.0644 19.6104 16.2642 19.1089 16.2657H14.3738Z" fill="#02010A"/>
</svg>
