<svg width="106" height="104" viewBox="0 0 106 104" fill="none" xmlns="http://www.w3.org/2000/svg">
<g clip-path="url(#clip0_7_2)">
<path d="M2.00037 51.917C1.9388 24.3571 24.2972 0.902134 53.1668 1.00031C81.5635 1.09349 103.974 24.1175 103.98 51.9419C103.98 79.8864 81.4738 102.975 52.8971 102.935C24.2773 102.894 1.89554 79.5785 2.00037 51.917ZM53.115 80.7033C53.4195 80.6734 53.7149 80.5829 53.9837 80.4372C54.2527 80.2914 54.4896 80.0934 54.681 79.8547C55.1465 79.3072 55.5692 78.7247 55.9455 78.1126C57.1967 76.0227 58.3948 73.9012 59.651 71.8144C61.6112 68.5566 64.1655 65.9424 67.7679 64.4931C68.0761 64.3742 68.3745 64.2307 68.6596 64.0639C69.9675 63.2652 70.3419 62.1786 69.6264 60.8191C69.0607 59.7459 68.3352 58.7575 67.6679 57.7408C66.4826 55.984 65.8827 53.8972 65.9542 51.7789C66.0147 49.785 66.4528 47.8208 67.2454 45.99C67.6597 45.0249 68.1356 44.0848 68.5349 43.1132C69.2403 41.3976 69.0739 40.7253 67.6331 39.484C66.9617 38.9058 66.2615 38.3622 65.5348 37.8551C62.3216 35.6188 59.8658 32.7616 58.2966 29.1593C57.9007 28.2474 57.4647 27.3506 57.0487 26.4453C56.6956 25.631 56.2199 24.8756 55.6377 24.2057C54.2067 22.6199 52.6225 22.8146 51.6874 24.7481C51.0635 26.041 50.5976 27.4104 50.0001 28.7183C48.5775 31.8265 46.5226 34.3624 43.3361 35.8267C42.4326 36.241 41.5058 36.6138 40.6105 37.0397C38.4475 38.0597 38.0114 39.0665 38.8019 41.2961C39.2445 42.5473 39.8085 43.7536 40.271 44.9983C42.2546 50.3462 41.8902 55.4163 38.4274 60.1053C37.9016 60.8174 37.341 61.508 36.8501 62.2436C35.7335 63.9191 36.0181 65.1604 37.8052 66.0224C38.9594 66.5544 40.1426 67.021 41.3493 67.4201C44.3777 68.4782 46.5442 70.5083 48.0917 73.2655C48.8281 74.6287 49.4842 76.0338 50.0567 77.4736C50.3469 78.192 50.6802 78.8921 51.0551 79.5702C51.4562 80.2708 52.0734 80.7232 53.115 80.7033Z" fill="black"/>
</g>
<defs>
<clipPath id="clip0_7_2">
<rect width="102" height="102" fill="white" transform="translate(2 1)"/>
</clipPath>
</defs>
</svg>
