<svg width="1408" height="742" viewBox="0 0 1408 742" fill="none" xmlns="http://www.w3.org/2000/svg">
<g clip-path="url(#clip0_1_2)">
<path d="M320.338 526.263V529.42L408.72 1126H246.16L187.765 617.802H184.608V1126H26.7826V21.2213H184.608V467.868H187.765L246.16 21.2213H408.72L320.338 526.263ZM582.254 1126H424.429V21.2213H582.254V1126ZM1153.77 1126H940.703L913.873 370.016L910.716 196.408H907.56L904.403 370.016L877.573 1126H664.509L598.222 21.2213H779.721L781.299 761.423V952.392H784.456L790.769 761.423L825.491 21.2213H992.786L1027.51 761.423L1033.82 952.392H1036.98L1038.56 761.423V21.2213H1212.16L1153.77 1126ZM1385.25 1126H1227.43V21.2213H1385.25V1126Z" fill="#131313"/>
</g>
<defs>
<clipPath id="clip0_1_2">
<rect width="1408" height="742" fill="white"/>
</clipPath>
</defs>
</svg>
