<svg width="24" height="24" viewBox="0 0 24 24" fill="none" xmlns="http://www.w3.org/2000/svg">
<path d="M18.7839 7.21685C17.8852 7.02461 17.0714 6.55035 16.4611 5.8632C15.8509 5.17606 15.4761 4.31195 15.3913 3.39685V3H12.2912V15.3032C12.2893 15.8479 12.1168 16.3783 11.7979 16.8198C11.479 17.2614 11.0297 17.5919 10.5133 17.765C9.99683 17.9381 9.43913 17.945 8.91855 17.7848C8.39797 17.6245 7.94068 17.3052 7.61094 16.8717C7.27608 16.4309 7.09032 15.8949 7.08061 15.3415C7.0709 14.788 7.23773 14.2458 7.55692 13.7936C7.87611 13.3413 8.33106 13.0025 8.85579 12.8262C9.38053 12.6499 9.94777 12.6454 10.4753 12.8132V9.66363C9.29899 9.50102 8.1013 9.71014 7.04973 10.2618C5.99816 10.8134 5.1453 11.6799 4.61044 12.74C4.07559 13.8002 3.88549 15.0011 4.06674 16.1746C4.24799 17.3482 4.79152 18.4357 5.6213 19.2852C6.41262 20.0948 7.42726 20.6503 8.53571 20.8808C9.64416 21.1112 10.7961 21.0061 11.8446 20.5789C12.893 20.1516 13.7904 19.4217 14.4221 18.4822C15.0538 17.5427 15.3913 16.4362 15.3913 15.3041V9.01751C16.6442 9.9132 18.1464 10.3935 19.6865 10.3907V7.31044C19.3832 7.31081 19.0807 7.27944 18.7839 7.21685Z" fill="black"/>
</svg>
